<svg xmlns="http://www.w3.org/2000/svg" version="1.1" xmlns:xlink="http://www.w3.org/1999/xlink" xmlns:svgjs="http://svgjs.com/svgjs" width="500" height="500" preserveAspectRatio="none" viewBox="0 0 500 500"><g mask="url(&quot;#SvgjsMask1041&quot;)" fill="none"><rect width="500" height="500" x="0" y="0" fill="rgba(99, 52, 235, 1)"></rect><path d="M0,223.165C42.501,227.538,89.655,216.976,120.329,187.235C149.955,158.51,141.59,109.947,156.468,71.457C170.14,36.087,203.819,8.582,204.043,-29.337C204.278,-69.104,188.105,-111.016,157.697,-136.645C128.287,-161.433,82.758,-146.272,47.384,-161.374C4.73,-179.584,-22.305,-237.598,-68.475,-233.204C-113.146,-228.953,-143.162,-181.533,-163.118,-141.342C-180.813,-105.703,-165.481,-63.982,-171.988,-24.728C-178.7,15.766,-215.48,53.461,-201.824,92.17C-188.214,130.749,-139.719,141.739,-105.404,164.011C-70.911,186.399,-40.906,218.957,0,223.165" fill="#4d17e8"></path><path d="M500 708.681C543.316 710.325 589.441 719.271 626.912 697.48 664.8720000000001 675.405 690.94 634.537 700.996 591.792 710.311 552.199 684.4010000000001 514.571 679.443 474.2 674.34 432.65 698.275 383.575 671.475 351.416 644.734 319.328 592.962 331.481 552.353 321.701 514.208 312.515 479.158 293.134 440.004 295.672 394.372 298.629 338.153 299.62 312.195 337.26599999999996 285.823 375.512 320.067 427.352 317.23199999999997 473.722 314.721 514.799 285.148 553.367 296.565 592.906 308.457 634.0889999999999 341.875 666.875 379.13 688.077 415.38599999999997 708.71 458.314 707.0989999999999 500 708.681" fill="#7951ee"></path></g><defs><mask id="SvgjsMask1041"><rect width="500" height="500" fill="#ffffff"></rect></mask></defs></svg>